<?xml version="1.0" encoding="UTF-8"?><svg id="a" xmlns="http://www.w3.org/2000/svg" width="191.56mm" height="33.51mm" viewBox="0 0 543 95" fill="white"><path d="M327.05,55.43h29.55v-20.45c0-9.67-6.52-15.45-17.43-15.45h-8.93c-11.12,0-17.76,5.77-17.76,15.45v31.99c0,9.67,6.7,15.67,17.93,15.67h8.6c11.02,0,17.6-6,17.6-15.67v-5.71h-11.76v3.83c0,7.21-3.01,10.29-10.05,10.29s-10.39-2.98-10.39-10.29v-7.37c0-1.27,1.19-2.3,2.65-2.3h0ZM324.4,36.73c0-7.21,3.11-10.29,10.39-10.29s10.05,3.08,10.05,10.29v7.65c0,1.6-1.49,2.89-3.33,2.89h-14.47c-1.46,0-2.64-1.03-2.64-2.29v-8.25Z"/><path d="M431.08,82.65c6.18,0,7.8-2.27,10.38-3.44.8-.36,1.69.22,1.69,1.1v2.12h11.76V19.79h-11.76v44.94c0,6.88-3.57,10.67-10.05,10.67s-9.38-3.04-9.38-9.29V19.79h-11.76v48.94c0,8.65,5.89,13.92,15.74,13.92h3.38Z"/><path d="M486.39,75.01h6.64v7.41h-13.38c-6.66,0-10.18-3.22-10.18-9.33V27.69h-8.09v-7.91h8.09V.28h11.76v19.5h8.49v7.91h-8.49v42.91c0,3.51,1.06,4.42,5.16,4.42h0Z"/><path d="M532.64,19.76h10.36s-13.52,50.53-18.75,67.17c-1.05,3.36-2.82,8.07-11.49,8.07h-11.19v-7.41h8.47c5.43,0,6.02-4.49,5.43-6.69l-19-61.14h11.39l11.44,40.8c.39,1.44,2.77,1.41,3.12-.04,0,0,10.22-40.76,10.22-40.76Z"/><path d="M58.68,31.37v51.05h-24.09v-47.6c0-2.91-2.35-5.27-5.25-5.27h0c-2.9,0-5.25,2.36-5.25,5.27v47.6H0V0h24.09v19.76h22.36c4.77,0,12.23,1.51,12.23,11.61Z"/><path d="M99.73,19.76h24.09v62.66h-24.09v-1.32c0-.81-.53-1.52-1.38-1.85-.87-.34-1.88-.22-2.61.33-2.5,1.85-5.74,2.84-9.36,3.06h-8.47c-3.84-.23-12.76-1.36-12.76-11.84V19.76h24.08v47.59c0,2.91,2.35,5.28,5.25,5.28h0c2.9,0,5.25-2.36,5.25-5.28,0,0,0-47.59,0-47.59Z"/><path d="M236.39,19.54h-26.7c-6.83,0-13.51,2.42-13.51,12.54v7.86h23.21v-5.73c0-2.91,2.35-5.27,5.25-5.27s5.25,2.36,5.25,5.27v4.49c0,2.7-1.12,4.05-3.25,4.72-1.87.6-12.28,1.04-20.83,1.3-5.87.18-10.53,5.01-10.53,10.91v14.86c0,6.8,4.14,12.2,13.26,12.15,1.99-.01,5.98.01,7.97,0,3.62-.02,6.86-1.31,9.36-3.17.74-.55,1.74-.67,2.61-.33.85.33,1.38,1.04,1.38,1.85v1.32h24.09v-45.91c0-11.36-4.82-16.87-17.58-16.87h.02ZM224.63,72.6h0c-2.9,0-5.25-2.36-5.25-5.28v-9.43c0-2.91,2.35-5.28,5.25-5.28h0c2.9,0,5.25,2.36,5.25,5.28v9.43c0,2.91-2.35,5.28-5.25,5.28Z"/><path d="M164.88.59v19.17h-20.75c-6.32,0-13.85,2.13-13.85,12.27v38.12c0,10.14,7.53,12.27,13.85,12.5h7.1c3.62-.23,6.86-1.21,9.36-3.07.74-.55,1.74-.67,2.61-.33.85.33,1.38,1.04,1.38,1.85v1.32h24.23V.59h-23.94,0ZM159.63,73.22h0c-2.9,0-5.25-2.36-5.25-5.28v-32.53c0-2.91,2.35-5.28,5.25-5.28h0c2.9,0,5.25,2.36,5.25,5.28v32.53c0,2.91-2.35,5.28-5.25,5.28Z"/><path d="M388.3,19.54h-7.86c-12.45.13-16.87,6.37-16.87,14.89v9.63h11.42v-6.41c0-5.26.09-11.1,9.71-11.1,7.44,0,9.21,3.74,9.21,10.05v2.8c0,4.44-1.51,6.77-5.46,7.71-2.91.7-8.26.58-12.79,1.17-9.88,1.28-12.59,6.31-12.59,15.18v4.82c0,9.93,5.04,14.36,14.57,14.36h2.68c6.18,0,7.8-2.27,10.38-3.44.8-.36,1.69.22,1.69,1.1v2.12h13.12v-46.24c0-10.74-3.95-16.52-17.2-16.65h-.01ZM393.91,64.9c0,7.01-5.12,10.98-11.63,10.98-6.98,0-9.53-3.74-9.53-9.34v-2.14c0-5.37,1.98-8.06,7.44-9.34,3.84-.93,7.44-1.28,10-2.34,1.39-.58,2.79-1.52,3.72-2.69,0,0,0,14.87,0,14.87Z"/><path d="M294.83,20.36c-7.66-1.58-14.95-1.1-19.79,1.55-1.23.68-2.84-.02-2.84-1.29V.28h-11.76v82.14h11.77v-2.12c0-.88.9-1.46,1.69-1.1,2.58,1.17,4.2,3.45,10.38,3.45h4.21c11.07,0,17.43-5.78,17.43-15.68v-31.87c0-9.84-7.03-13.9-11.09-14.74h0ZM295.63,65.22c0,7.02-5.23,10.29-12.2,10.29-7.56,0-11.4-4.13-11.4-12.29v-24.37c0-8.07,3.83-12.16,11.4-12.16,6.88,0,12.2,3.33,12.2,10.17v28.37h0Z"/></svg>