<svg xmlns="http://www.w3.org/2000/svg" fill="none" viewBox="0 0 128 25" height="25" width="128">
<g clip-path="url(#clip0_3499_3024)">
<path fill="#73CF11" d="M23.9118 0.181152H0V24.1812H23.9118V0.181152Z"></path>
<path fill="#73CF11" d="M49.8161 0.181152H25.9043V24.1812H49.8161V0.181152Z"></path>
<path fill="#73CF11" d="M75.7204 0.181152H51.8086V24.1812H75.7204V0.181152Z"></path>
<path fill="#73CF11" d="M101.625 0.181152H77.7129V24.1812H101.625V0.181152Z"></path>
<path fill="#73CF11" d="M127.529 0.181152H103.617V24.1812H127.529V0.181152Z"></path>
<path fill="#DCDCE6" d="M127.8 0.23877H115.8V24.2388H127.8V0.23877Z"></path>
<path fill="white" d="M11.956 16.356L15.5926 15.431L17.112 20.131L11.956 16.356ZM20.3251 10.281H13.9238L11.956 4.23096L9.98829 10.281H3.58691L8.7678 14.031L6.80006 20.081L11.9809 16.331L15.1692 14.031L20.3251 10.281Z"></path>
<path fill="white" d="M37.8603 16.356L41.4969 15.431L43.0163 20.131L37.8603 16.356ZM46.2294 10.281H39.8281L37.8603 4.23096L35.8926 10.281H29.4912L34.6721 14.031L32.7044 20.081L37.8852 16.331L41.0735 14.031L46.2294 10.281Z"></path>
<path fill="white" d="M63.7646 16.356L67.4012 15.431L68.9206 20.131L63.7646 16.356ZM72.1337 10.281H65.7324L63.7646 4.23096L61.7969 10.281H55.3955L60.5764 14.031L58.6087 20.081L63.7895 16.331L66.9778 14.031L72.1337 10.281Z"></path>
<path fill="white" d="M89.6689 16.356L93.3055 15.431L94.8249 20.131L89.6689 16.356ZM98.038 10.281H91.6367L89.6689 4.23096L87.7012 10.281H81.2998L86.4807 14.031L84.5129 20.081L89.6938 16.331L92.8821 14.031L98.038 10.281Z"></path>
<path fill="white" d="M115.573 16.356L119.21 15.431L120.729 20.131L115.573 16.356ZM123.942 10.281H117.541L115.573 4.23096L113.605 10.281H107.204L112.385 14.031L110.417 20.081L115.598 16.331L118.786 14.031L123.942 10.281Z"></path>
</g>
<defs>
<clipPath id="clip0_3499_3024">
<rect transform="translate(0 0.181152)" fill="white" height="24" width="127.529"></rect>
</clipPath>
</defs>
</svg>
