<svg xmlns="http://www.w3.org/2000/svg" fill="none" viewBox="0 0 81 20" height="20" width="81">
<g clip-path="url(#clip0_3499_3045)">
<path fill="#191919" d="M21.6012 5.31258H29.7198V6.79347H26.528V15.12H24.7718V6.79347H21.5938V5.31201H21.6006L21.6012 5.31258ZM29.3733 8.01833H30.874V9.38916H30.9021C30.952 9.19528 31.0436 9.00825 31.1782 8.82805C31.4661 8.44184 31.8556 8.14245 32.3038 7.96301C32.5315 7.87321 32.7738 7.82623 33.0187 7.82445C33.202 7.82445 33.3372 7.83129 33.4082 7.8387C33.4787 7.84555 33.5491 7.85923 33.627 7.86607V9.37491C33.5121 9.35489 33.3965 9.33872 33.2805 9.32644C33.1653 9.31287 33.0494 9.30601 32.9333 9.30591C32.6641 9.30591 32.4098 9.36122 32.1692 9.46557C31.9286 9.56878 31.723 9.72788 31.5465 9.92917C31.3583 10.1542 31.2141 10.4125 31.1215 10.6904C31.0155 10.9949 30.9657 11.3405 30.9657 11.7357V15.1131H29.3664V8.01833H29.3733ZM40.9815 15.1205H39.4103V14.1306H39.3816C39.1834 14.491 38.8936 14.775 38.504 14.9894C38.1145 15.2038 37.7181 15.3144 37.3149 15.3144C36.3594 15.3144 35.6651 15.0863 35.2413 14.6222C34.8162 14.1586 34.6037 13.4595 34.6037 12.5249V8.0189H36.2036V12.3726C36.2036 12.9959 36.3239 13.4389 36.5719 13.695C36.8125 13.951 37.1591 14.0827 37.5978 14.0827C37.9375 14.0827 38.2136 14.0343 38.4399 13.9299C38.6667 13.8261 38.8506 13.695 38.9852 13.5216C39.1267 13.3557 39.2258 13.1481 39.29 12.9126C39.353 12.6771 39.3816 12.4211 39.3816 12.1445V8.02574H40.9815V15.1205ZM43.7064 12.8436C43.7563 13.2998 43.9327 13.6191 44.2374 13.8056C44.5485 13.9858 44.9168 14.0827 45.3487 14.0827C45.4976 14.0827 45.6672 14.0685 45.8585 14.0479C46.0493 14.0268 46.2331 13.9784 46.3964 13.9168C46.566 13.8541 46.7 13.7571 46.8134 13.6328C46.92 13.5074 46.9692 13.3488 46.9623 13.1481C46.9614 13.055 46.9408 12.963 46.9018 12.8784C46.8628 12.7937 46.8064 12.7181 46.7361 12.6566C46.594 12.5254 46.4176 12.4285 46.1976 12.3452C45.9526 12.2607 45.7018 12.1937 45.4472 12.1445C45.1643 12.0892 44.8813 12.0265 44.5914 11.9643C44.2994 11.9014 44.0111 11.8228 43.7276 11.7288C43.4618 11.644 43.211 11.5179 42.9847 11.3553C42.7641 11.2021 42.5842 10.9978 42.4605 10.76C42.3265 10.5176 42.2623 10.22 42.2623 9.86017C42.2623 9.47241 42.3614 9.15423 42.5528 8.89078C42.7457 8.62953 42.9949 8.41446 43.282 8.26125C43.5905 8.09888 43.9222 7.98446 44.2655 7.92196C44.6264 7.8598 44.9735 7.82502 45.2989 7.82502C45.6741 7.82502 46.0349 7.86665 46.3752 7.94306C46.7046 8.01326 47.0186 8.14211 47.302 8.3234C47.5781 8.49675 47.8044 8.72484 47.9888 9.00197C48.1727 9.27854 48.2861 9.61782 48.3354 10.0124H46.6651C46.5871 9.63892 46.417 9.38289 46.1415 9.25801C45.8654 9.12685 45.5469 9.06413 45.1929 9.06413C45.0795 9.06413 44.9449 9.07097 44.7896 9.09207C44.64 9.11187 44.4928 9.14664 44.3503 9.19585C44.22 9.24362 44.1017 9.31913 44.0037 9.4171C43.9561 9.46823 43.9192 9.52818 43.8949 9.59354C43.8706 9.6589 43.8595 9.72838 43.8622 9.79802C43.8622 9.9919 43.9327 10.1441 44.0673 10.2616C44.2019 10.3791 44.3789 10.476 44.5983 10.5593C44.8177 10.6357 45.0657 10.7047 45.3487 10.76C45.6317 10.8153 45.9215 10.8775 46.2194 10.9402C46.5092 11.0023 46.7922 11.0856 47.0758 11.1751C47.3587 11.2652 47.6062 11.3901 47.8262 11.5492C48.0456 11.7083 48.2226 11.9022 48.3566 12.1377C48.4912 12.3726 48.5622 12.6703 48.5622 13.0164C48.5622 13.4384 48.4631 13.7919 48.2644 14.0896C48.0667 14.3804 47.8118 14.6222 47.5002 14.8024C47.174 14.9894 46.8206 15.1249 46.4525 15.2038C46.0781 15.2858 45.696 15.3275 45.3126 15.3281C44.8833 15.3329 44.4552 15.2817 44.0392 15.1759C43.6497 15.0721 43.31 14.9198 43.0271 14.7197C42.7474 14.5174 42.5174 14.2546 42.3546 13.951C42.1919 13.6465 42.1065 13.2793 42.0928 12.8573H43.7064V12.8436ZM48.9867 8.01947H50.1971V5.8868H51.797V8.01947H53.2405V9.18844H51.7975V12.9822C51.7975 13.1476 51.8044 13.2867 51.8187 13.411C51.8325 13.529 51.868 13.6328 51.9178 13.7155C51.972 13.8024 52.0542 13.8683 52.151 13.9025C52.2575 13.9442 52.3916 13.9653 52.576 13.9653C52.6889 13.9653 52.8023 13.9653 52.9157 13.9578C53.0291 13.951 53.142 13.9373 53.2554 13.9094V15.1205C53.0784 15.1416 52.9014 15.1553 52.7387 15.1759C52.5672 15.1957 52.3946 15.205 52.222 15.2038C51.7975 15.2038 51.4579 15.1622 51.2024 15.0863C50.948 15.0099 50.7424 14.8925 50.6009 14.7402C50.452 14.588 50.3603 14.4009 50.3036 14.1723C50.2485 13.9151 50.2178 13.6534 50.212 13.3905V9.20156H49.0016V8.01776H48.9873L48.9867 8.01947ZM54.373 8.01947H55.8881V8.98088H55.9167C56.1424 8.56575 56.454 8.27493 56.8573 8.09531C57.2695 7.91287 57.7162 7.82069 58.1673 7.82502C58.7402 7.82502 59.2356 7.92196 59.6607 8.12268C60.0851 8.31656 60.4391 8.58685 60.7221 8.93241C61.0051 9.27854 61.2107 9.67998 61.3522 10.1373C61.4964 10.613 61.568 11.1076 61.5647 11.6045C61.5647 12.0818 61.5012 12.5454 61.3734 12.989C61.2561 13.417 61.0618 13.8202 60.8 14.1791C60.5427 14.5251 60.2084 14.8072 59.8234 15.0031C59.427 15.2106 58.967 15.3144 58.4291 15.3144C58.194 15.3142 57.9594 15.2932 57.728 15.2517C57.4972 15.2103 57.2718 15.1432 57.0561 15.0516C56.8418 14.9625 56.6413 14.8435 56.4609 14.698C56.2828 14.5566 56.1276 14.3887 56.0009 14.2002H55.9723V17.7442H54.373V8.01833V8.01947ZM59.9649 11.5766C59.9652 11.2609 59.9224 10.9467 59.8377 10.6425C59.7592 10.3543 59.6297 10.0824 59.455 9.83964C59.2893 9.60867 59.0743 9.41706 58.8255 9.27854C58.5582 9.13476 58.2586 9.06099 57.9548 9.06413C57.2823 9.06413 56.7725 9.29222 56.4328 9.74955C56.0931 10.2063 55.923 10.8159 55.923 11.5766C55.923 11.9364 55.966 12.2688 56.0576 12.5733C56.1493 12.8778 56.277 13.1413 56.4609 13.3625C56.6385 13.5843 56.8504 13.7571 57.0984 13.8814C57.3459 14.0132 57.6363 14.0753 57.9617 14.0753C58.33 14.0753 58.6342 13.9995 58.8891 13.8541C59.1359 13.7127 59.3485 13.519 59.5117 13.2867C59.6744 13.0512 59.7953 12.7877 59.8657 12.4906C59.9309 12.1903 59.9641 11.8839 59.9649 11.5766ZM62.7889 5.31258H64.3888V6.79404H62.7889V5.31258ZM62.7889 8.0189H64.3888V15.1205H62.7889V8.0189ZM65.8185 5.31258H67.4184V15.1205H65.8185V5.31258ZM72.3235 15.3144C71.7427 15.3144 71.226 15.2175 70.7734 15.031C70.3396 14.8539 69.9469 14.5899 69.6198 14.2555C69.3017 13.9143 69.0581 13.5113 68.9043 13.0717C68.7359 12.5865 68.6523 12.0762 68.6569 11.5629C68.6569 11.0229 68.7416 10.5251 68.9043 10.0677C69.0582 9.62839 69.3018 9.22552 69.6198 8.88451C69.9308 8.55206 70.3203 8.29603 70.7734 8.10899C71.226 7.92196 71.7427 7.82502 72.3235 7.82502C72.9038 7.82502 73.4204 7.92196 73.8736 8.10899C74.3267 8.29603 74.7087 8.55947 75.0272 8.88451C75.3452 9.2254 75.5886 9.62832 75.7421 10.0677C75.9048 10.5245 75.9896 11.0229 75.9896 11.5629C75.9896 12.1103 75.9048 12.615 75.7421 13.0717C75.5887 13.5113 75.3453 13.9145 75.0272 14.2555C74.7156 14.588 74.3267 14.844 73.8736 15.031C73.4204 15.2175 72.9038 15.3144 72.3235 15.3144ZM72.3235 14.0753C72.6775 14.0753 72.9885 13.9995 73.2503 13.8541C73.5055 13.7127 73.7257 13.5163 73.8947 13.2793C74.0643 13.0443 74.1846 12.7741 74.2699 12.4764C74.3479 12.1787 74.3902 11.8742 74.3902 11.5629C74.3902 11.2584 74.3479 10.9607 74.2699 10.6562C74.197 10.3674 74.0697 10.0949 73.8947 9.85333C73.7253 9.61857 73.5051 9.42467 73.2503 9.28595C72.9885 9.14054 72.6775 9.06413 72.3235 9.06413C71.9695 9.06413 71.6579 9.14054 71.3961 9.28595C71.143 9.42679 70.9234 9.62032 70.7522 9.85333C70.5798 10.0964 70.4527 10.3683 70.377 10.6562C70.2986 10.9522 70.258 11.2568 70.2562 11.5629C70.2562 11.8742 70.2991 12.1787 70.377 12.4764C70.4549 12.7741 70.5821 13.0443 70.7522 13.2793C70.9218 13.5148 71.1343 13.7087 71.3961 13.8541C71.6579 14.0063 71.9695 14.0753 72.3235 14.0753ZM76.457 8.01947H77.6674V5.8868H79.2673V8.01947H80.7108V9.18844H79.2673V12.9822C79.2673 13.1476 79.2741 13.2867 79.2879 13.411C79.3022 13.529 79.3377 13.6328 79.3875 13.7155C79.4416 13.8025 79.5238 13.8685 79.6207 13.9025C79.7272 13.9442 79.8613 13.9653 80.0457 13.9653C80.1586 13.9653 80.272 13.9653 80.3854 13.9578C80.4988 13.951 80.6117 13.9373 80.7251 13.9094V15.1205C80.5481 15.1416 80.3711 15.1553 80.2084 15.1759C80.0369 15.1957 79.8643 15.205 79.6917 15.2038C79.2673 15.2038 78.927 15.1622 78.6721 15.0863C78.4178 15.0099 78.2121 14.8925 78.0706 14.7402C77.9223 14.588 77.83 14.4009 77.7733 14.1723C77.7183 13.9151 77.6876 13.6533 77.6817 13.3905V9.20156H76.4713V8.01776H76.457V8.01947Z"></path>
<path fill="#04DA8D" d="M19.732 7.31239H12.3993L10.1344 0.487305L7.86143 7.31297L0.529297 7.30555L6.46775 11.5275L4.19593 18.3452L10.1344 14.1301L16.066 18.3452L13.801 11.5275L19.732 7.31239Z"></path>
<path fill="#126849" d="M14.3106 13.0714L13.8008 11.5278L10.1348 14.1304L14.3106 13.0714Z"></path>
</g>
<defs>
<clipPath id="clip0_3499_3045">
<rect transform="translate(0.529297 0.487305)" fill="white" height="19.3878" width="80.1952"></rect>
</clipPath>
</defs>
</svg>
